<svg viewBox="0 0 100 100" xmlns="http://www.w3.org/2000/svg"><g fill="#06000B"><path d="M170.6 483.3h-6v-16.2h6c1.7 0 3.2.5 4.4 1.6 1.9 1.9 1.7 3.9 1.7 6.5v2.7c1.9-3.2 1.4-7.4-1.3-10.2L136.5 429c-3.3-3.3-11.9-3.8-11.9 3.4V468l-.2-.2-.5-.5v3.4h-4v12.6h-4v-12.6h-4v-3.5h11.8l-38-38.2c-3.3-3.3-11.9-3.8-11.9 3.4v34.7h10.7v3.5h-7v2.8h6v3.5h-6v6.2h-3.7v31.5c0 7.4 8.6 6.9 11.9 3.6l38.8-38.8.2-.2v35.3c0 7.4 8.6 6.9 11.9 3.6l35.2-35.2c-.4.4-.8.4-1.2.4zm-76.4 0l-.7-2.4h-5l-.8 2.4h-4.2l5.9-16.2h3.1l5.9 16.2h-4.2zm10.2.2c-2.5 0-4.5-.5-6.1-2.1l2.5-2.5c.8.8 2.3 1.1 3.6 1.1 1.6 0 2.3-.5 2.3-1.5 0-.4-.1-.7-.3-1-.2-.2-.5-.4-1.1-.4l-2-.3c-1.4-.2-2.5-.7-3.2-1.4-.7-.8-1.1-1.9-1.1-3.2 0-3 2.2-5.1 5.9-5.1 2.3 0 4.1.5 5.4 1.9l-2.5 2.5c-1-1-2.4-1-3.1-1-1.4 0-2 .8-2 1.5 0 .2.1.5.3.8.2.2.5.4 1.1.5l2 .3c1.5.2 2.5.7 3.2 1.3.9.8 1.2 2 1.2 3.5.1 3.3-2.7 5.1-6.1 5.1zm37.5-12.8h-7v2.8h6v3.5h-6v6.2h-4V467h11v3.7zm16.9 12.6h-3.2l-2.6-8-2.6 8h-3.2l-4.4-16.2h4.2l2.1 8.5 2.6-8.5h2.8l2.6 8.5 2.1-8.5h4.2l-4.6 16.2z"/><path d="M89.6 477.6h2.8l-1.4-4.3zm82.7-6c-.4-.5-.9-.9-1.9-.9h-1.7v9.1h1.7c1 0 1.5-.4 1.9-.9.3-.5.4-.9.4-3.6 0-2.8-.1-3.2-.4-3.7z"/></g><path d="M52.7 75s25.6-6.9 20.7-30.9-11-27.7-5.5-37.7-24.7 17.4-32.6 37.9c-6.1 15.8-.5 28 16.5 31" fill="#296639"/><path d="M46.2 81.9s-19 6.3-27.1-14.4-6.2-26.4-14.2-31.7S28.2 38 42.6 50.2c11.1 9.4 13.3 21.4 4.2 31.4" fill="#479958"/><path d="M42.8 75c0 6.4-5.7 10.4-12.7 10.4s-12.7-4-12.7-10.4 5.7-9.7 12.7-9.7 12.7 3.3 12.7 9.7z" fill="#993829"/><path d="M31.3 66.3s-1.5-2.7-4.9-2.5c0 0 2.2 1.3 2.4 3.2 0 0-2.4-1.5-4.9.3 0 0 3.4.2 4 .7 0 0-2.4 3.6-1.2 5.1 0 0 1-3 2.5-3.9 0 0 3.1 1.1 2.6 3.3 0 0 1.7-1.5.1-3.7 0 0 1.5-.9 3.2.5 0 0 .3-2.2-3-2.2 0 0 2.1-1.7 4.1-1.5 0-.1-2.7-1.8-4.9.7z" fill="#66AA5B"/><path d="M27.1 84.8s.9 6.7 3.5 9c3.1 2.8 14.5 2.4 21.9.8s14.9-.9 23.5-1.7c14-1.3 21.4-9.6 20.3-16.1-1.1-6.9-1.6-8.6-1.6-8.6L27.1 84.8z" fill="#7C6654"/><path d="M48.6 72.4c-6.1 2.9-18.1 2.3-20.5 7.6s-1.2 12.2 13 11.4c14.2-.8 24-3.6 32.7-3C82.4 89 97.6 82 95 69.2c-1.5-7.3-13-13.6-23.2-14.5s-17.5 15-23.2 17.7z" fill="#5C412D"/><path d="M57.7 65.8s3.5-4.2 6.7-6.5 3.9-2.9 8.1-2.4 11.6 2.6 12.6 3.9 1 3.5.7 3.7c-.3.1.9-1.2-3.1-3.8s-7.9-2.5-9.8-2.7c-1.9-.2-4.6-.7-5.7.5-1.1 1.1-9.5 7.3-9.5 7.3zM28.8 82s0 .3-.1.8c-.1 1.6 0 5.2 2.2 5.9 2.9.9 7.3 1.1 10.3 1 3-.1 7.5 0 7.5 0s-3.9-.8-9.5-1.1c-5.6-.2-7.9-.6-9.2-1.9" fill="#7C6654"/></svg>